<svg width="18" height="18" viewBox="0 0 18 18" fill="none" xmlns="http://www.w3.org/2000/svg">
<path d="M12.4898 1.46939C13.5615 1.46939 14.5893 1.89512 15.3471 2.65292C16.1049 3.41072 16.5306 4.43851 16.5306 5.5102V12.4898C16.5306 13.5615 16.1049 14.5893 15.3471 15.3471C14.5893 16.1049 13.5615 16.5306 12.4898 16.5306H5.5102C4.43851 16.5306 3.41072 16.1049 2.65292 15.3471C1.89512 14.5893 1.46939 13.5615 1.46939 12.4898V5.5102C1.46939 4.43851 1.89512 3.41072 2.65292 2.65292C3.41072 1.89512 4.43851 1.46939 5.5102 1.46939H12.4898ZM12.4898 0H5.5102C4.05015 0.00436057 2.65114 0.586298 1.61872 1.61872C0.586298 2.65114 0.00436057 4.05015 0 5.5102V12.4898C0.00436057 13.9499 0.586298 15.3489 1.61872 16.3813C2.65114 17.4137 4.05015 17.9956 5.5102 18H12.4898C13.9499 17.9956 15.3489 17.4137 16.3813 16.3813C17.4137 15.3489 17.9956 13.9499 18 12.4898V5.5102C17.9956 4.05015 17.4137 2.65114 16.3813 1.61872C15.3489 0.586298 13.9499 0.00436057 12.4898 0Z" fill="white"/>
<path d="M14.1429 2.57144C13.8886 2.57144 13.64 2.64685 13.4286 2.78812C13.2172 2.9294 13.0524 3.1302 12.955 3.36513C12.8577 3.60007 12.8323 3.85858 12.8819 4.10799C12.9315 4.35739 13.0539 4.58648 13.2338 4.76629C13.4136 4.9461 13.6427 5.06856 13.8921 5.11817C14.1415 5.16777 14.4 5.14231 14.6349 5.045C14.8698 4.94769 15.0706 4.78289 15.2119 4.57146C15.3532 4.36003 15.4286 4.11145 15.4286 3.85716C15.4286 3.68831 15.3953 3.52112 15.3307 3.36513C15.2661 3.20914 15.1714 3.06741 15.052 2.94802C14.9326 2.82863 14.7909 2.73392 14.6349 2.66931C14.4789 2.6047 14.3117 2.57144 14.1429 2.57144V2.57144Z" fill="white"/>
<path d="M8.99124 5.90188C9.60414 5.90153 10.2034 6.08298 10.7131 6.42328C11.2229 6.76357 11.6202 7.24741 11.855 7.81359C12.0897 8.37978 12.1512 9.00285 12.0317 9.60399C11.9122 10.2051 11.6171 10.7573 11.1837 11.1907C10.7503 11.6241 10.1981 11.9192 9.59698 12.0387C8.99584 12.1582 8.37276 12.0967 7.80658 11.862C7.2404 11.6273 6.75655 11.2299 6.41626 10.7201C6.07597 10.2104 5.89451 9.61116 5.89486 8.99825C5.89625 8.17747 6.22292 7.3907 6.8033 6.81032C7.38369 6.22994 8.17046 5.90327 8.99124 5.90188ZM8.99124 4.50001C8.10152 4.50174 7.23229 4.76718 6.49338 5.26277C5.75448 5.75837 5.17907 6.46188 4.83987 7.2844C4.50067 8.10692 4.4129 9.01153 4.58767 9.88392C4.76243 10.7563 5.19188 11.5573 5.82174 12.1857C6.4516 12.8141 7.2536 13.2417 8.12639 13.4144C8.99918 13.5871 9.90358 13.4972 10.7253 13.1561C11.547 12.815 12.2492 12.2379 12.7431 11.4979C13.2369 10.7578 13.5003 9.88797 13.5 8.99825C13.4998 8.40672 13.3829 7.82103 13.1561 7.27469C12.9293 6.72836 12.597 6.2321 12.1783 5.81431C11.7595 5.39651 11.2625 5.06539 10.7156 4.83987C10.1687 4.61434 9.58278 4.49886 8.99124 4.50001Z" fill="white"/>
</svg>
