<svg width="17" height="16" viewBox="0 0 17 16" fill="none" xmlns="http://www.w3.org/2000/svg">
<path d="M17 9.93755V15.8571H13.5279V10.334C13.5279 8.94655 13.0256 7.99967 11.7688 7.99967C10.8094 7.99967 10.2385 8.6378 9.98728 9.25508C9.89568 9.47576 9.8721 9.78291 9.8721 10.0918V15.8571H6.39875C6.39875 15.8571 6.44553 6.50277 6.39875 5.53359H9.87177V6.99691C9.86472 7.00785 9.85557 7.01965 9.84894 7.03026H9.87177V6.99691C10.3332 6.29449 11.1572 5.29106 13.0017 5.29106C15.2869 5.29106 17 6.76655 17 9.93755ZM2.76548 0.557129C1.57725 0.557129 0.800049 1.32745 0.800049 2.34044C0.800049 3.33136 1.55476 4.12506 2.71938 4.12506H2.74258C3.95382 4.12506 4.7071 3.33151 4.7071 2.34044C4.68428 1.32745 3.95382 0.557129 2.76548 0.557129ZM1.00634 15.8571H4.47837V5.53359H1.00634V15.8571Z" fill="white"/>
</svg>
