<svg width="18" height="18" viewBox="0 0 18 18" fill="none" xmlns="http://www.w3.org/2000/svg">
<path fill-rule="evenodd" clip-rule="evenodd" d="M6.76982 17.5395C6.76982 17.3202 6.76209 16.7401 6.75767 15.9697C4.25427 16.5271 3.72608 14.7325 3.72608 14.7325C3.31668 13.6663 2.7266 13.3825 2.7266 13.3825C1.90945 12.8098 2.78848 12.8216 2.78848 12.8216C3.69183 12.8868 4.16698 13.7728 4.16698 13.7728C4.96977 15.1828 6.27312 14.7761 6.7864 14.5399C6.86817 13.9433 7.10077 13.5366 7.35768 13.306C5.35928 13.0732 3.25811 12.2812 3.25811 8.7451C3.25811 7.73786 3.60895 6.91416 4.18466 6.26892C4.09239 6.03552 3.78299 5.09739 4.27306 3.82672C4.27306 3.82672 5.02888 3.5786 6.74772 4.77278C7.46542 4.56828 8.23561 4.46517 9.00138 4.46177C9.76549 4.46517 10.5351 4.56828 11.2545 4.77278C12.9722 3.5786 13.7269 3.82672 13.7269 3.82672C14.2181 5.09682 13.9093 6.03495 13.8164 6.26892C14.3933 6.91416 14.7413 7.73786 14.7413 8.7451C14.7413 12.2903 12.6369 13.0703 10.6318 13.2986C10.9556 13.5836 11.2429 14.1467 11.2429 15.0078C11.2429 16.2416 11.2313 17.237 11.2313 17.5395C11.2313 17.7865 11.3937 18.0731 11.8506 17.9831C15.4237 16.7605 18 13.3037 18 9.22832C18 4.1315 13.97 0 8.99972 0C4.02996 0 0 4.1315 0 9.22832C0.000552503 13.3049 2.57908 16.7639 6.15544 17.9842C6.60517 18.0686 6.76982 17.7836 6.76982 17.5395Z" fill="white"/>
</svg>
